<svg xmlns="http://www.w3.org/2000/svg" width="31" height="19" fill="none" xmlns:v="https://vecta.io/nano"><path fill-rule="evenodd" d="M22.02 13.615c.804-1.338 2.776-1.832 4.097-1.038s4.462 6.181 4.462 6.181-6.122-.179-7.552-1.038-1.811-2.766-1.007-4.105zm1.481.89c.402-.669 1.388-.916 2.049-.519s2.231 3.09 2.231 3.09-3.061-.089-3.776-.519a1.52 1.52 0 0 1-.503-2.052zM1.944.385l15.429 9.271-1.03 1.714L.914 2.1 1.944.385zm16.286 9.786l3.429 2.06-1.03 1.714-3.429-2.06 1.03-1.714z" fill="#000"/></svg>