<svg xmlns="http://www.w3.org/2000/svg" width="55" height="48" fill="none" xmlns:v="https://vecta.io/nano"><path fill-rule="evenodd" d="M21.75 38v10H20V38h1.75zM27 38v1.657h-2.086v2.514h1.82v1.657h-1.82V48H23.25V38H27zm2.649 0l.864 3.743L31.39 38H33l-1.702 6.057V48h-1.597v-3.943L28 38h1.649zM7.513 9c.628 0 .649.865.063.923l-.121.005-.132.013-.134.02-.16.03-.118.027-.193.053-.137.044-.142.051-.092.037-.188.085c-.823.4-1.711 1.23-1.711 2.934 0 .754.193 1.491.432 2.264l.272.86c.323 1.026.635 2.142.635 3.457 0 1.817-1.032 3.076-1.829 3.714l-.138.106-.132.093-.124.08-.167.095-.097.047-.084.034c-.038.014-.071.022-.097.025L3.097 24c.029 0 .07.009.121.027l.084.034.097.047.167.095.124.08.132.093.138.106c.797.638 1.829 1.897 1.829 3.714 0 1.222-.269 2.271-.566 3.236l-.275.87c-.269.851-.498 1.653-.498 2.476 0 1.704.888 2.534 1.711 2.934l.188.085.092.037.142.052.137.044.13.037.123.03.114.024.104.019.134.02.132.013.058.002c.649 0 .649.926 0 .926l-.157-.002-.172-.008-.217-.017-.188-.021-.136-.018-.144-.023-.228-.043-.159-.035-.163-.041-.167-.047c-1.322-.395-2.905-1.402-2.905-3.967 0-1.112.152-1.895.354-2.556l.096-.297.095-.267.29-.77a7.14 7.14 0 0 0 .497-2.691c0-2.093-1.397-3.042-2.493-3.452l-.162-.057-.156-.05-.149-.043-.141-.036-.131-.03-.229-.042-.137-.019-.072-.007-.077-.004c-.262 0-.415-.152-.459-.457l.012-.068c.052-.238.181-.367.389-.387l.136-.006.16-.018.157-.026.12-.024.131-.03.141-.036.149-.043.156-.05.162-.057c1.097-.41 2.493-1.359 2.493-3.452a7.14 7.14 0 0 0-.497-2.691l-.29-.77-.095-.267-.096-.297c-.202-.661-.354-1.445-.354-2.556 0-2.511 1.517-3.529 2.821-3.941l.21-.062.205-.052.159-.035.154-.03.147-.025.207-.029.188-.021.217-.017.206-.009L7.513 9zm39.974 0l.122.001.207.009.217.017.188.021.207.029.147.025.154.03.159.035.247.064.169.05c1.304.413 2.821 1.43 2.821 3.941 0 1.112-.152 1.895-.354 2.556l-.096.297-.094.267-.29.77c-.268.727-.497 1.497-.497 2.691 0 2.025 1.308 2.979 2.386 3.41l.107.041.162.057.156.05.149.043.141.036.131.03.12.024.157.026.16.018.135.006c.181.017.303.118.366.302l.023.084L55 24c-.04.274-.168.425-.384.452l-.152.008-.072.007-.137.019-.229.042-.131.03-.141.036-.149.043-.156.05-.162.057c-1.097.41-2.493 1.359-2.493 3.452a7.04 7.04 0 0 0 .44 2.534l.057.157.29.77.094.267.096.297c.202.661.354 1.444.354 2.556 0 2.492-1.494 3.514-2.791 3.932l-.114.035-.167.047-.163.041-.159.035-.228.043-.144.023-.136.018-.188.021-.217.017-.172.008-.157.002c-.621 0-.648-.847-.081-.921l.139-.008.132-.013.134-.02.104-.019.114-.024.123-.03.13-.037.137-.044.142-.052.093-.037.188-.085c.823-.4 1.711-1.23 1.711-2.934 0-.731-.181-1.446-.41-2.194l-.363-1.151c-.297-.965-.566-2.015-.566-3.236 0-1.744.951-2.975 1.732-3.634l.097-.08.138-.106.132-.093.124-.08.086-.051.081-.044.097-.047.084-.034a.53.53 0 0 1 .088-.024l.033-.003-.024-.002-.044-.009-.053-.016-.084-.034-.097-.047-.081-.044-.086-.051-.124-.08-.132-.093-.138-.106c-.797-.638-1.829-1.897-1.829-3.714 0-1.206.262-2.244.555-3.199l.353-1.118c.239-.773.432-1.51.432-2.264 0-1.704-.888-2.534-1.711-2.934l-.188-.085-.093-.037-.142-.051-.203-.063-.127-.033-.119-.027-.16-.03-.134-.02-.132-.013-.121-.005c-.559-.055-.566-.846-.019-.917L47.487 9zm-33.085 6v15.851H18V34h-7V15h3.402zM23 15v19h-4V15h4zm5.202 0l3.455 9.609V15H35v19h-3.034l-3.624-10.07V34H25V15h3.202zm15.72 0v3.149h-3.771v4.723h3.332v3.149h-3.332v4.831H44V34h-7V15h6.922zM21.5 0c1.456 0 2.451 1.467 2.498 4.518L24 4.75v.5C24 8.458 22.992 10 21.5 10c-1.456 0-2.451-1.467-2.498-4.518L19 4.75C19 1.542 20.008 0 21.5 0zm5.101 0l1.728 5.057V0H30v10h-1.517l-1.812-5.3V10H25V0h1.601zm8.355 0v1.657h-2.155v2.486h1.904V5.8h-1.904v2.543H35V10h-4V0h3.956zM21.5 1.5c-.369 0-.664.269-.836 1.074l-.046.245-.039.275-.017.149-.028.323-.02.357-.012.393-.003.21v.947l.008.411.007.192.02.357.028.323.017.149.039.275.046.245c.172.804.467 1.074.836 1.074s.664-.269.836-1.074l.046-.245.039-.275.017-.149.028-.323.02-.357.012-.393.003-.21v-.947l-.008-.411-.007-.192-.02-.357-.028-.323-.017-.149-.039-.275-.046-.245c-.172-.804-.467-1.074-.836-1.074z" fill="#4c5980"/></svg>