<svg xmlns="http://www.w3.org/2000/svg" width="48" height="53" fill="none" xmlns:v="https://vecta.io/nano"><path fill-rule="evenodd" d="M15.93 30.265l-.023.025-6.798-6.179-.045-.043-.26-.266-5.979-5.423-.046-.044C-1.694 13.905-.7 7.658 5.27 0l2.291 1.775C2.392 8.406 1.636 13.101 4.803 16.263l1.482 1.344c.001-3.425 1.79-7.41 5.27-11.874l2.291 1.775c-5.037 6.461-5.884 11.085-2.993 14.243L22 31.86 20.048 34l-4.118-3.735zm21.007-8.325c3.104-3.161 2.327-7.841-2.812-14.433l2.291-1.775c3.489 4.476 5.279 8.47 5.27 11.901l1.511-1.37c3.168-3.162 2.411-7.857-2.758-14.488L42.73 0c5.97 7.658 6.964 13.905 2.49 18.336l-.046.044-6.227 5.648-.041.041-.045.043-6.798 6.179-.009-.01L27.952 34 26 31.86l10.938-9.92zm-8.611 23.742l-4.352 3.589-4.394-3.58c-.91-11.49-5.917-18.505-14.934-20.689L4 27.843c7.873 1.906 12.11 8.011 12.803 18.692l.042.646L23.985 53l7.045-5.81.055-.617C32.057 35.777 36.34 29.657 44 27.845L43.367 25c-8.812 2.085-13.847 9.095-15.04 20.682z" fill="#4c5980"/></svg>