<svg xmlns="http://www.w3.org/2000/svg" width="70" height="33" fill="none" xmlns:v="https://vecta.io/nano"><path fill-rule="evenodd" d="M0 16.891a16.62 16.62 0 0 1 1.311-6.563c.874-2.059 2.066-3.853 3.576-5.381s3.282-2.735 5.317-3.62S14.4 0 16.689 0s4.45.442 6.485 1.327 3.807 2.091 5.317 3.62 2.702 3.322 3.576 5.381 1.311 4.247 1.311 6.563c0 1.383-.159 2.719-.477 4.006s-.763 2.494-1.335 3.62L36 32.962H21.791L11.641 33a15.92 15.92 0 0 1-1.437-.545c-2.034-.885-3.807-2.091-5.317-3.62s-2.702-3.322-3.576-5.381A16.62 16.62 0 0 1 0 16.891zm36 16.071V1h8.561l8.463 12.282L61.439 1H70v32H59.64V21.486l-6.615 9.595-6.664-9.595V33H36v-.038zM10.013 16.891c0 .933.175 1.81.524 2.63s.827 1.536 1.431 2.148 1.311 1.094 2.122 1.448 1.677.531 2.599.531 1.788-.177 2.599-.531 1.518-.837 2.122-1.448 1.081-1.327 1.43-2.148.524-1.697.524-2.63-.175-1.81-.524-2.63-.826-1.536-1.43-2.148-1.311-1.094-2.122-1.448-1.677-.531-2.599-.531-1.788.177-2.599.531-1.518.837-2.122 1.448-1.081 1.327-1.431 2.148a6.64 6.64 0 0 0-.524 2.63z" fill="#4c5980"/></svg>