<svg xmlns="http://www.w3.org/2000/svg" width="162" height="83" fill="none" xmlns:v="https://vecta.io/nano"><mask id="A" maskUnits="userSpaceOnUse" x="0" y="0" width="162" height="83" mask-type="alpha"><path fill-rule="evenodd" d="M0 0H162V83H0V0Z" fill="#fff"/></mask><g mask="url(#A)"><path fill-rule="evenodd" d="M32.535 63.445c-3.524 4.128-5.859 6.864-6.881 7.654-2.056 1.591 1.096 6.429 4.438 3.05 3.969-4.012 4.678-5.772 5.435-7.648.611-1.516 1.254-3.108 3.671-6.026C51.974 45.057 73.634 21.203 98.361 3.424c14.751-10.607 11.895-4.873 4.541 3.651C90.729 21.185 79.016 33.123 69.53 42.792c-8.454 8.617-15.14 15.432-18.806 20.374-8.148 10.983-.251 12.505 4.356 10.468 2.206-.975 3.564-2.023 5.7-3.67 2.323-1.792 5.567-4.294 11.827-8.187 1.309-.814 2.325-1.559 3.11-2.135 2.123-1.557 2.563-1.88 2.563 1.003 0 2.017 3.092 3.35 5.548 3.35.605 0 1.108-.072 1.551-.136 1.355-.194 2.145-.307 3.555 1.973 1.256 2.03 1.794 2.035 4.246 2.059.834.008 1.889.018 3.269.11 4.323.29 6.526 1.012 9.076 1.847 3.446 1.129 7.524 2.466 18.317 3.222 31.823 2.231 58.019 19.014 66.854 24.822 7.038 4.627 6.069.551 2.861-1.999-26.238-20.863-53.05-24.792-64.48-25.849-14.764-1.364-19.296-2.9-24.073-4.518l-3.879-1.254c-6.714-1.989-6.967-3.069-7.237-4.227-.11-.472-.224-.957-.78-1.521-2.356-2.391-7.266-.811-7.266-.811s.904-2.339 2.731-3.323c.884-.476 1.236-.986 1.644-1.577.653-.947 1.45-2.102 4.81-3.662 4.889-2.269-1.024-7.668-4.41-4.26-2.205 2.219-11.234 8.112-19.646 13.604l-11.846 7.852c-8.626 5.974-8.43 2.38-1.861-5.109 8.088-9.221 17.757-19.095 26.763-28.291 11.246-11.485 21.458-21.912 26.26-28.689 8.648-12.204 5.766-18.112-12.578-4.268-30.948 23.356-54.014 50.379-65.172 63.449zm-48.777-6.597c-.564-.69-1.24-1.517-2.416-1.743-5.538-1.062-14.589 8.693-15.306 13.407-.677 4.454 8.209 11.121 18.071-3.268 4.237-6.182 3.524-4.669 2.56-2.625h0l-.001.001-.546 1.177c-1.581 3.535-.187 5.511.493 6.476h0l.001.002.176.256c1.231 1.886 3.037 2.47 5.551-.357s7.325-7.084 11.99-10.681 5.916-2.806 5.916-1.395.554 2.923 3.153 4.992c1.202.957 1.571 2.079 1.948 3.223.438 1.331.886 2.692 2.664 3.861 2.523 1.659 7.309-2.089 5.081-3.77-.88-.664-1.815-1.43-2.164-3.314s-.544-2.381-1.772-3.597l-.016-.016c-1.214-1.202-1.407-1.393-2.098-4.373-.694-2.994-1.787-4.093-7.263-2.652-4.039 1.063-12.2 5.922-16.983 11.345-3.407 3.862-6.007 1.063 22.811-32.53 5.108-5.954 9.849-12.305 13.623-17.36h0c3.322-4.45 5.896-7.897 7.311-9.187 3.875-3.531-.822-7.043-4.363-2.719l-45.798 55.063c-1.306 1.397-1.863.716-2.625-.217zm-2.086 6.232c2.244-2.863-1.496-3.415-4.078-2.058-9.635 5.063-2.37 10.285 4.078 2.058zm-47.839 1.183C-59.646 53.135-40.738 23.929-4.81 8.927c6.609-2.76 14.286.7 9.108 9.655-7.433 12.856-27.853 32.007-49.691 52.489h0c-21.6 20.258-44.586 41.817-57.766 59.872-6.144 8.417-6.158 10.416-5.211 12.388l.244.495v.001c.788 1.587 1.074 2.161-1.61 2.924-2.946.837-4.264-.506-4.264-2.974s.503-5.869 7.968-15.071c18.093-22.307 37.294-40.244 55.667-57.408 17.609-16.45 34.459-32.191 48.846-50.388 3.501-4.429 7.32-14.57-9.008-6.032l-.872.451c-7.486 3.859-31.557 16.269-52.834 51.323-1.295 2.134-3.04-.502-1.935-2.388z" fill="#4c5980"/></g></svg>