<svg xmlns="http://www.w3.org/2000/svg" width="46" height="52" fill="none" xmlns:v="https://vecta.io/nano"><path d="M24.774.492c2.02 0 3.616 1.573 3.686 3.877l.002.158V40.11c0 1.11.539 1.677 1.229 1.677.661 0 1.184-.52 1.227-1.541l.003-.136V16.877c0-2.404 1.619-4.064 3.688-4.064 2.023 0 3.616 1.586 3.686 3.905l.002.159v7.444c0 .276.049.367.418.41l.165.015.203.012.188.006h.284l.465-.006h.449c.425-.735 1.22-1.23 2.13-1.23a2.46 2.46 0 0 1 2.459 2.459 2.46 2.46 0 0 1-2.459 2.459c-.91 0-1.704-.494-2.129-1.228h-.521l-.506.006-.294-.003-.187-.007c-1.805-.089-3.058-.889-3.122-2.74l-.003-.152v-7.444c0-1.06-.532-1.605-1.229-1.605-.668 0-1.185.501-1.227 1.475l-.003.13V40.11c0 2.442-1.612 4.136-3.688 4.136-2.031 0-3.618-1.621-3.686-3.978l-.002-.158V4.528c0-1.04-.529-1.577-1.229-1.577-.671 0-1.185.493-1.227 1.449l-.003.127v42.955c0 2.377-1.625 4.01-3.688 4.01-2.018 0-3.616-1.561-3.686-3.852l-.002-.157V11.85c0-2.008-2.35-2.047-2.442-.118l-.003.118v20.927c0 4.709-7.229 4.761-7.388.155l-.003-.155V21.063c0-1.971-2.363-2.01-2.456-.116l-.003.116v2.795c.735.425 1.229 1.22 1.229 2.129a2.46 2.46 0 0 1-2.459 2.459 2.46 2.46 0 0 1-2.459-2.459c0-.91.494-1.705 1.229-2.13v-2.795c0-5.234 7.223-5.288 7.374-.164l.002.164v11.714c0 1.45 2.362 1.483 2.469.099l.004-.099V11.85c0-5.271 7.211-5.326 7.36-.163l.002.163v35.632c0 1.022.527 1.551 1.229 1.551.673 0 1.185-.486 1.227-1.426l.003-.125V4.528c0-2.39 1.622-4.035 3.688-4.035z" fill="#4c5980"/></svg>