<svg xmlns="http://www.w3.org/2000/svg" width="69" height="29" fill="#4c5980" xmlns:v="https://vecta.io/nano"><path d="M0 14.5c0-2.21.402-4.205 1.205-5.986a13.95 13.95 0 0 1 3.272-4.578c1.378-1.271 2.985-2.244 4.821-2.921S13.086 0 15.152 0c1.636 0 3.092.152 4.369.456s2.375.649 3.293 1.036c1.062.442 1.98.925 2.755 1.45l-4.52 7.664a15.28 15.28 0 0 0-1.507-.953c-.488-.221-1.069-.435-1.743-.642S16.358 8.7 15.497 8.7c-.89 0-1.708.152-2.454.456a6.32 6.32 0 0 0-1.959 1.243 5.69 5.69 0 0 0-1.313 1.844c-.316.705-.474 1.457-.474 2.258s.165 1.554.495 2.258a5.82 5.82 0 0 0 1.356 1.844c.574.525 1.248.939 2.023 1.243s1.621.456 2.54.456 1.736-.111 2.454-.331 1.32-.47 1.808-.746c.574-.304 1.076-.663 1.507-1.077L26 25.81c-.775.608-1.693 1.146-2.755 1.616-.918.387-2.023.746-3.315 1.077S17.161 29 15.497 29c-2.238 0-4.305-.352-6.199-1.056s-3.53-1.692-4.907-2.962-2.454-2.796-3.228-4.578S0 16.654 0 14.5zm27.08 5.22a12.87 12.87 0 0 0 1.84.456c.533.138 1.14.249 1.82.331s1.367.124 2.06.124c1.227 0 1.84-.469 1.84-1.408 0-.359-.187-.725-.56-1.098s-.847-.787-1.42-1.243l-1.84-1.512c-.653-.552-1.267-1.188-1.84-1.906a10.03 10.03 0 0 1-1.42-2.424c-.373-.898-.56-1.926-.56-3.086 0-1.298.227-2.444.68-3.439s1.08-1.823 1.88-2.486S31.3.863 32.38.518 34.613 0 35.84 0a17.9 17.9 0 0 1 1.92.104l1.72.186 1.72.249v7.747l-.72-.083-.72-.083a8.16 8.16 0 0 0-.84-.041l-.6.021c-.24.014-.467.048-.68.104a1.37 1.37 0 0 0-.56.29c-.16.138-.24.331-.24.58 0 .221.18.497.54.829l1.32 1.16 1.72 1.533c.627.58 1.2 1.243 1.72 1.989a11.75 11.75 0 0 1 1.32 2.527c.36.939.54 1.989.54 3.149 0 1.215-.187 2.354-.56 3.418a7.29 7.29 0 0 1-1.74 2.776c-.787.787-1.793 1.409-3.02 1.864S36 29 34.32 29a25.45 25.45 0 0 1-2.82-.145l-2.3-.352a18.76 18.76 0 0 1-2.12-.497V19.72zM46 1h8.972v9.529h5.013V1H69v28h-9.015V18.631h-5.013V29H46V1z"/></svg>