<svg width="204" height="102" viewBox="0 0 204 102" fill="none" xmlns="http://www.w3.org/2000/svg">
<title>John Newman</title>
<path fill-rule="evenodd" clip-rule="evenodd" d="M96.9352 47.6298C94.6274 50.3817 93.0975 52.2059 92.4286 52.7326C91.0817 53.7933 93.1463 57.019 95.3355 54.7663C97.9349 52.0917 98.3998 50.9185 98.8954 49.6679C99.2959 48.6572 99.7165 47.596 101.3 45.6507C109.667 35.3711 123.854 19.4685 140.049 7.61578C149.711 0.544422 147.84 4.36689 143.024 10.0495C135.05 19.4567 127.379 27.4156 121.166 33.8613C115.628 39.6061 111.249 44.149 108.848 47.4441C103.511 54.7663 108.684 55.7809 111.701 54.423C113.146 53.7726 114.035 53.0744 115.434 51.9763C116.956 50.7815 119.08 49.1133 123.18 46.5182C124.037 45.9755 124.703 45.4789 125.217 45.0949C126.608 44.0569 126.896 43.842 126.896 45.7636C126.896 47.1081 128.921 47.9971 130.529 47.9971C130.925 47.9971 131.255 47.9491 131.545 47.9068C132.432 47.7774 132.949 47.702 133.874 49.2223C134.696 50.5759 135.048 50.5793 136.655 50.5948C137.201 50.6001 137.892 50.6068 138.796 50.6684C141.627 50.8616 143.07 51.343 144.74 51.9C146.997 52.6528 149.668 53.5437 156.737 54.0482C177.58 55.5357 194.738 66.7241 200.525 70.5964C205.135 73.6815 204.499 70.9638 202.399 69.2635C185.213 55.3546 167.652 52.7353 160.166 52.0311C150.496 51.1215 147.527 50.0979 144.399 49.0192C143.6 48.7439 142.792 48.465 141.858 48.1835C137.461 46.8572 137.295 46.1372 137.118 45.3659C137.046 45.0513 136.972 44.7281 136.608 44.3518C135.065 42.7575 131.848 43.8113 131.848 43.8113C131.848 43.8113 132.441 42.2518 133.637 41.5961C134.217 41.2787 134.447 40.9389 134.714 40.5449C135.142 39.9138 135.664 39.1436 137.865 38.1038C141.067 36.591 137.194 32.9922 134.976 35.264C133.532 36.7434 127.618 40.6724 122.108 44.3332C119.157 46.2944 116.321 48.1786 114.35 49.568C108.7 53.5509 108.829 51.1548 113.131 46.1621C118.428 40.0147 124.762 33.432 130.66 27.3013C138.026 19.6449 144.714 12.6934 147.859 8.1752C153.523 0.0391293 151.636 -3.89921 139.621 5.33015C119.351 20.9006 104.243 38.9159 96.9352 47.6298ZM66.3453 42.6426C65.9851 42.1858 65.553 41.6379 64.8017 41.4886C61.2632 40.7854 55.4808 47.2449 55.0232 50.3661C54.5908 53.3155 60.2676 57.7303 66.5686 48.2024C69.2757 44.1091 68.82 45.1109 68.2044 46.4642C68.0868 46.7226 67.9635 46.9939 67.8552 47.2449C66.8453 49.5856 67.7357 50.8942 68.1705 51.5333C68.2136 51.5967 68.2523 51.6535 68.2842 51.7041C69.0709 52.9527 70.2245 53.3398 71.8308 51.4676C73.4371 49.5953 76.5107 46.7766 79.4909 44.395C82.4711 42.0133 83.2705 42.5367 83.2705 43.4711C83.2705 44.4054 83.6246 45.4064 85.285 46.7766C86.0528 47.4103 86.2887 48.1531 86.5295 48.9109C86.8093 49.7919 87.0957 50.6934 88.2316 51.4676C89.8432 52.5661 92.9014 50.0841 91.4779 48.9711C90.9156 48.5315 90.318 48.0241 90.0953 46.7766C89.8726 45.5292 89.7477 45.2 88.9629 44.395L88.9528 44.3846C88.177 43.5889 88.0537 43.4625 87.6125 41.4886C87.1694 39.5062 86.471 38.7782 82.9725 39.7325C80.3922 40.4364 75.1781 43.6539 72.1221 47.2449C69.9455 49.8025 68.2842 47.949 86.6957 25.7047C89.9591 21.7619 92.9879 17.557 95.3991 14.2095C97.5218 11.2625 99.1659 8.97997 100.07 8.12594C102.545 5.78755 99.5451 3.46216 97.2824 6.32566C95.4709 8.61819 69.2243 41.4543 68.0223 42.786C67.1877 43.7107 66.8321 43.2599 66.3453 42.6426ZM65.0128 46.7693C66.4465 44.8736 64.0571 44.5079 62.4073 45.4064C56.2517 48.7587 60.893 52.2168 65.0128 46.7693ZM31.0913 47.239C35.3298 39.8737 47.6204 20.5428 70.9735 10.6132C75.2694 8.78664 80.2593 11.0764 76.8936 17.0039C72.0621 25.5128 58.7892 38.1887 44.5946 51.7447L44.5946 51.7448C30.5549 65.1529 15.6135 79.4222 7.04675 91.3722C3.05307 96.9431 3.04395 98.2666 3.65981 99.5717C3.71468 99.688 3.76792 99.7971 3.81804 99.8998C4.33044 100.95 4.51601 101.33 2.77158 101.835C0.856527 102.389 0 101.5 0 99.8669C0 98.2334 0.327126 95.9826 5.17908 89.8917C16.94 75.1276 29.4203 63.2557 41.3629 51.8953L41.363 51.8953C52.8091 41.0071 63.7613 30.5889 73.1126 18.5447C75.3884 15.6135 77.8703 8.90106 67.2575 14.5521C67.0892 14.6417 66.9001 14.741 66.691 14.8507C61.8254 17.405 46.179 25.6186 32.3489 48.8197C31.5069 50.2322 30.3728 48.4875 31.0913 47.239Z" fill="black"/>
</svg>
