<svg xmlns="http://www.w3.org/2000/svg" width="24" height="24" fill="none" xmlns:v="https://vecta.io/nano"><path fill-rule="evenodd" d="M11.999 0C5.373 0 0 5.509 0 12.304c0 5.436 3.438 10.047 8.207 11.674.6.113.819-.267.819-.593l-.016-2.092c-3.338.743-4.042-1.65-4.042-1.65-.546-1.421-1.333-1.8-1.333-1.8-1.09-.763.083-.748.083-.748 1.204.087 1.838 1.268 1.838 1.268 1.07 1.88 2.809 1.337 3.493 1.022.109-.795.419-1.337.762-1.644-2.665-.31-5.466-1.366-5.466-6.081 0-1.343.468-2.442 1.235-3.301-.124-.311-.536-1.563.118-3.256 0 0 1.007-.331 3.3 1.261.957-.273 1.984-.409 3.004-.415a11.24 11.24 0 0 1 3.004.415c2.291-1.592 3.297-1.261 3.297-1.261.655 1.693.243 2.945.12 3.256.769.86 1.233 1.959 1.233 3.301 0 4.727-2.806 5.767-5.479 6.071.43.38.814 1.131.814 2.279l-.015 3.375c0 .329.217.712.825.592 4.765-1.631 8.2-6.239 8.2-11.673C24 5.509 18.627 0 11.999 0z" fill="#161514"/></svg>