<svg xmlns="http://www.w3.org/2000/svg" width="94" height="112" fill="none" opacity=".59" xmlns:v="https://vecta.io/nano"><path d="M37 38c20.435 0 37 16.566 37 37s-16.565 37-37 37S0 95.435 0 75s16.566-37 37-37zm0 1.333C17.302 39.333 1.333 55.302 1.333 75S17.302 110.667 37 110.667 72.667 94.698 72.667 75 56.698 39.333 37 39.333zM12.507 80.334l-.351-1.036-5.864 2.052.215.636 3.73-1.305 1.449-.57.011.032-4.518 3.827.188.555 5.876.208.011.032-1.431.437-3.778 1.322.233.688 5.864-2.052-.348-1.028-5.478-.198-.011-.032 4.202-3.567zm4.645 9.511l-.381-.476-6.379 2.042.458.572 2.012-.657 1.561 1.95-1.048 1.862.469.586 3.308-5.878zm4.878 4.25l-1.554-1.1-3.556 5.135 1.405.995c.854.604 1.663.843 2.428.716s1.441-.614 2.028-1.461c.55-.794.759-1.567.629-2.319s-.59-1.407-1.379-1.966zm4.909 3.423l3.265 1.137-.208.612-2.584-.9-.65 1.909 2.428.845-.207.608-2.428-.846-.742 2.181 2.584.9-.21.616-3.265-1.137 2.017-5.925zM47 105.192l-.969-6.189-.665.107.556 3.552.023.155.034.199.073.381.183.877-.033.005-4.145-4.639-.803.129.969 6.189.657-.105-.551-3.518-.329-1.666.033-.005 4.157 4.658.812-.13zm-9.929-5.454l-.72-.025-.216 6.263.72.025.216-6.263zm-16.357-5.814l-2.841 4.102.718.508c.703.498 1.353.697 1.949.597s1.132-.492 1.607-1.178c.464-.67.647-1.292.551-1.866s-.472-1.094-1.127-1.557l-.857-.607zm-4.488-3.949c-.25.124-.538.244-.863.36l-1.951.651 1.259 1.574 1.041-1.789a10.28 10.28 0 0 1 .515-.796z" fill-rule="evenodd" fill="#e5e3df"/><path d="M12.156 79.297l.473-.16-.162-.478-.477.167.165.472zm.351 1.036l.323.381.259-.22-.109-.322-.473.16zm-6.215 1.016l-.165-.472-.467.163.159.469.474-.16zm.215.636l-.474.16.162.478.477-.167-.165-.472zm3.73-1.305l-.165-.472.165.472zm1.449-.57l.473-.16-.178-.524-.503.229.207.455zm.011.032l.323.382.26-.22-.109-.322-.474.16zm-4.518 3.827l-.323-.382-.26.22.109.322.474-.16zm.188.555l-.474.16.111.327.345.012.018-.5zm5.876.208l.474-.16-.111-.327-.345-.012-.018.5zm.011.032l.13.483.515-.138-.171-.505-.473.16zm-1.431.437l.165.472h0l-.165-.472zm-3.778 1.322l-.165-.472-.467.163.159.469.474-.16zm.233.688l-.474.16.162.478.477-.167-.165-.472zm5.864-2.052l.165.472.467-.163-.159-.469-.474.16zm-.348-1.028l.474-.16-.111-.327-.345-.012-.018.5zm-5.478-.198l-.474.16.111.327.345.012.018-.5zm-.011-.032l-.324-.381-.259.22.109.322.474-.16zm8.467 5.469l.39-.312-.215-.269-.328.105.152.476zm.381.476l.436.245.165-.294-.211-.264-.39.312zm-6.759 1.566l-.152-.476-.692.221.454.567.39-.312zm.458.572l-.39.313.216.27.329-.107-.155-.475zm2.012-.657l.39-.312-.216-.27-.329.108.155.475zm1.561 1.95l.436.245.166-.294-.211-.264-.39.312zm-1.048 1.862l-.436-.245-.166.294.211.264.39-.312zm.469.586l-.39.312.463.578.363-.645-.436-.245zm6.632-2.729l.289-.408-.412-.292-.288.415.411.285zm1.554 1.1l-.289.408.289-.408zm-5.111 4.035l-.411-.285-.282.407.404.286.289-.408zm1.405.995l-.289.408.289-.408zm2.428.716l.082.493h0l-.082-.493zm2.028-1.461l.411.285-.411-.285zm7.423.276l.473.161.16-.47-.469-.163-.164.472zm-3.265-1.137l.165-.472-.476-.166-.162.477.473.161zm3.057 1.749l-.165.472.476.166.162-.477-.473-.161zm-2.584-.9l.164-.472-.476-.166-.162.477.473.161zm-.65 1.909l-.473-.162-.16.47.469.164.164-.472zm2.428.845l.473.161.16-.47-.469-.163-.164.472zm-.207.608l-.165.472.476.166.162-.477-.473-.161zm-2.428-.846l.165-.472-.476-.165-.162.476.473.161zm-.742 2.181l-.473-.161-.16.47.469.163.164-.472zm2.584.9l.473.161.16-.47-.469-.163-.165.472zm-.21.616l-.165.472.476.166.162-.477-.473-.161zm-3.265-1.137l-.473-.162-.16.47.469.164.165-.472zm21.109-4.44l.494-.077-.078-.496-.495.079.079.494zm.969 6.189l.079.494.492-.079-.077-.492-.494.077zm-1.635-6.082l-.079-.494-.492.079.077.492.494-.077zm.556 3.552l.495-.072-.001-.006-.494.078zm.023.155l-.495.072.002.013.493-.085zm.034.199l-.493.085.002.01.491-.095zm.073.381l-.491.094.002.008.489-.102zm.183.877l.079.493.517-.083-.107-.513-.489.103zm-.033.005l-.373.333.182.204.27-.043-.079-.494zm-4.145-4.639l.373-.333-.182-.204-.27.043.079.494zm-.803.129l-.079-.494-.492.079.077.492.494-.077zm.969 6.189l-.494.077.078.496.495-.079-.079-.494zm.657-.105l.079.493.492-.078-.077-.493-.494.078zm-.551-3.518l-.494.077.494-.077zm-.329-1.666l-.079-.494-.529.085.121.522.487-.113zm.033-.005l.373-.333-.182-.204-.27.043.079.494zm4.157 4.658l-.373.333.182.204.27-.043-.079-.494zm-9.837-5.61l.018-.5-.5-.018-.017.5.5.017zm.72.025l.5.017.017-.499-.499-.018-.018.5zm-.936 6.237l-.5-.018-.017.5.499.017.018-.499zm.72.025l-.018.5.5.017.017-.5-.5-.017zm-18.982-7.975l-.411-.285-.282.407.404.286.289-.408zm2.841-4.102l.289-.408-.412-.292-.288.415.411.285zm-2.123 4.611l-.289.408h0l.289-.408zm3.557-.581l.411.285h0l-.411-.285zm.551-1.866l.493-.083h0l-.493.083zm-1.127-1.557l-.289.408.289-.408zm-6.208-4.195l.158.474.01-.003-.168-.471zm.863-.36l.409.287-.631-.735.222.448zm-2.815 1.011l-.158-.474-.68.227.448.56.39-.312zm1.259 1.574l-.39.313.456.57.367-.631-.432-.251zm1.041-1.789l.432.251.002-.003-.434-.248zm-4.029-11.312l.351 1.036.947-.321-.351-1.036-.947.321zm-5.225 2.363l5.864-2.052-.33-.944-5.864 2.052.33.944zm.524.003l-.215-.635-.947.321.215.636.947-.321zm3.092-1.617l-3.73 1.305.33.944 3.73-1.305-.33-.944zm1.407-.553c-.381.174-.849.358-1.407.553l.33.944 1.491-.587-.415-.91zm.692.327l-.011-.032-.947.321.011.032.947-.321zM7.502 84.35l4.518-3.827-.646-.763-4.518 3.827.646.763zm.338.013l-.188-.555-.947.321.188.555.947-.321zm5.42-.131l-5.876-.208-.035.999 5.876.208.035-.999zm.467.372l-.011-.032-.947.321.011.032.947-.321zm-1.739 1.07l1.396-.426-.26-.966-1.466.448.33.944zm-3.778 1.322l3.778-1.322-.33-.944-3.778 1.322.33.944zm.542.056l-.233-.688-.947.321.233.688.947-.321zm5.225-2.363l-5.864 2.052.33.944 5.864-2.052-.33-.944zm-.657-.396l.348 1.028.947-.321-.348-1.028-.947.321zm-5.022.141l5.478.198.036-.999-5.478-.198-.036.999zm-.466-.372l.011.032.947-.321-.011-.032-.947.321zm4.352-4.109l-4.202 3.567.647.762 4.202-3.567-.647-.762zm4.198 9.729l.381.476.781-.625-.381-.476-.781.625zm-5.836 2.206l6.379-2.042-.305-.952-6.379 2.042.305.952zm.696-.216l-.458-.572-.781.625.458.572.781-.625zm1.467-.82l-2.012.657.31.951 2.012-.657-.31-.951zm2.106 2.113l-1.56-1.95-.781.625 1.56 1.95.781-.625zm-1.003 2.419l1.048-1.862-.871-.491-1.048 1.861.871.491zm.423.028l-.469-.586-.781.625.469.586.781-.625zm2.482-5.811l-3.308 5.878.871.49 3.308-5.878-.872-.49zm3.47 3.803l1.554 1.1.578-.816-1.554-1.1-.578.816zm-2.856 5.012l3.556-5.135-.822-.569-3.556 5.135.822.569zm1.283.302l-1.405-.995-.578.816 1.405.995.578-.816zm2.057.631c-.595.099-1.273-.076-2.057-.631l-.578.816c.922.653 1.863.957 2.798.802l-.163-.987zm1.699-1.253c-.536.775-1.107 1.155-1.699 1.253l.163.987c.938-.155 1.72-.749 2.358-1.67l-.822-.569zm.547-1.948c.103.591-.051 1.233-.547 1.948l.822.569c.604-.872.869-1.776.71-2.689l-.985.171zm-1.175-1.643c.711.503 1.073 1.054 1.175 1.643l.985-.171c-.159-.915-.716-1.675-1.583-2.288l-.578.816zm8.627 3.68l-3.265-1.137-.329.944 3.265 1.137.329-.944zm.101 1.245l.208-.612-.947-.322-.208.612.947.322zm-3.222-.589l2.584.9.329-.944-2.584-.9-.329.944zm-.012 1.598l.65-1.909-.947-.322-.65 1.908.947.323zm2.119.212l-2.428-.846-.329.945 2.428.845.329-.944zm.102 1.241l.207-.608-.947-.322-.207.608.947.322zm-3.066-.534l2.428.845.329-.944-2.428-.846-.329.945zm-.104 1.869l.742-2.18-.947-.323-.742 2.181.947.322zm2.275.267l-2.584-.9-.329.944 2.584.9.329-.944zm.099 1.249l.21-.616-.947-.322-.21.616.947.322zm-3.903-.826l3.265 1.137.329-.944-3.265-1.138-.329.945zm1.708-6.559l-2.017 5.925.947.323 2.017-5.925-.947-.322zm19.072 1.724l.969 6.19.988-.155-.969-6.189-.988.155zm-.092.523l.665-.107-.158-.987-.665.107.158.987zm.971 2.981l-.556-3.552-.988.155.556 3.552.988-.155zm.023.162l-.023-.156-.99.143.023.156.99-.143zm.032.186l-.034-.199-.986.169.034.199.986-.169zm.071.37l-.073-.38-.982.189.073.38.982-.189zm.181.869l-.183-.876-.979.204.183.877.979-.205zm-.444.602l.034-.006-.158-.987-.033.005.158.988zm-4.597-4.8l4.145 4.639.746-.666-4.146-4.639-.746.666zm-.352.29l.803-.129-.158-.988-.803.129.158.988zm1.384 5.618l-.969-6.189-.988.155.969 6.189.988-.154zm.084-.522l-.657.105.158.988.657-.106-.158-.987zm-.966-2.947l.551 3.518.988-.155-.551-3.518-.988.155zm-.322-1.63l.322 1.63.988-.155-.337-1.701-.974.226zm.441-.612l-.034.005.158.988.033-.006-.158-.987zm4.609 4.819l-4.157-4.658-.746.666 4.157 4.658.746-.666zm.36-.29l-.812.13.158.987.812-.13-.158-.987zm-10.588-4.487l.72.025.035-.999-.72-.025-.035 1zm.301 5.78l.216-6.263-.999-.034-.216 6.262.999.035zm.238-.492l-.72-.025-.035.999.72.026.035-1zm-.301-5.78l-.216 6.263.999.034.216-6.262-.999-.035zm-18.288-1.41l2.841-4.102-.822-.569-2.841 4.102.822.569zm.596-.184l-.718-.508-.578.816.718.508.578-.816zm1.578.512c-.419.07-.936-.058-1.578-.512l-.578.816c.765.541 1.547.812 2.32.683l-.165-.986zm1.279-.97c-.428.618-.86.9-1.279.97l.165.986c.774-.129 1.414-.633 1.936-1.387l-.822-.569zm.468-1.499c.068.402-.049.893-.468 1.499l.822.569c.508-.734.758-1.487.633-2.234l-.986.166zm-.923-1.232c.588.416.855.832.923 1.232l.986-.166c-.126-.749-.61-1.371-1.331-1.882l-.578.816zm-.857-.607l.857.607.578-.816-.857-.607-.578.816zm-4.895-3.526c.34-.121.646-.249.918-.383l-.445-.896c-.229.114-.498.226-.809.337l.336.942zm-1.961.655l1.951-.651-.317-.948-1.951.651.317.949zm1.492.787l-1.26-1.574-.781.625 1.259 1.574.781-.625zm.218-1.728l-1.041 1.789.864.503 1.041-1.789-.864-.503zm.537-.832l-.539.835.868.496c.12-.21.283-.462.49-.757l-.818-.575z" fill="#e5e3df"/><path fill-rule="evenodd" d="M69.963 1.411L69.225 1l.121 3.238c-.859-.15-1.485.132-1.879.846-.281.51-.334.979-.159 1.407s.592.827 1.251 1.194l1.473.821 2.978-5.398-.625-.348-1.238 2.245-1.121-.624-.062-2.969zM18.607 26.181l5.933 1.597-.487 1.827c-.247.927-.695 1.578-1.343 1.954s-1.431.441-2.348.194c-.979-.264-1.657-.732-2.032-1.406s-.43-1.512-.162-2.515l.44-1.651zm74.321 2.559c-.169-.873-.577-1.501-1.225-1.883s-1.454-.479-2.419-.291-1.679.582-2.135 1.178-.599 1.33-.43 2.2c.173.895.577 1.533 1.211 1.914s1.442.475 2.424.284c.99-.193 1.709-.585 2.158-1.176s.588-1.332.415-2.225zM29.741 57.644l.402.448-2.967 5.95-.495-.552.94-1.884-1.647-1.838-1.958.749-.484-.54 6.208-2.333zm27.911 13.185v.637h-2.71v2.258h2.546v.637h-2.546V77h-.714v-6.171h3.424zm27.341-8.568l-4.27-3.475-.449.558 4.773 3.884 2.155-2.674-.503-.409-1.705 2.116zm-55.639-3.876a7.94 7.94 0 0 1-.836.398l-1.898.74 1.33 1.484.936-1.813c.117-.231.273-.501.468-.809zm58.329-30.201c.353-.423.935-.714 1.746-.872.819-.16 1.472-.11 1.959.151s.795.726.925 1.398c.129.666.016 1.215-.338 1.646s-.94.728-1.756.887c-.806.157-1.453.102-1.943-.165s-.799-.736-.929-1.407-.017-1.214.336-1.637zm-68.664-1.149l-.225.844c-.22.826-.184 1.502.11 2.027s.837.894 1.629 1.107c.774.208 1.409.17 1.905-.114s.847-.811 1.052-1.581l.269-1.007-4.74-1.276zM68.877 4.791c-.303.061-.551.268-.746.62s-.234.672-.112.947.415.54.878.798l.812.452 1.139-2.064-.856-.477c-.441-.246-.813-.338-1.116-.276zM40.673 7.145l-3.345-5.176-.599.391 3.345 5.176.599-.391z" fill="#e5e3df"/><path d="M69.225 1l.243-.437-.776-.432.033.888.5-.019zm.739.411l.5-.011-.006-.287-.251-.14-.243.437zm-.618 2.827l-.086.493.609.106-.023-.618-.5.019zm-1.879.846l.438.242-.438-.242zm1.092 2.601l-.243.437.243-.437zm1.473.821l-.243.437.439.244.242-.44-.438-.242zm2.978-5.398l.438.242.241-.436-.435-.242-.243.437zm-.625-.348l.243-.437-.439-.244-.243.44.438.242zm-1.238 2.245l-.243.437.439.244.242-.44-.438-.242zm-1.121-.624l-.5.011.006.287.251.14.243-.437zM24.54 27.778l.483.129.129-.482-.482-.13-.13.483zm-5.933-1.597l.13-.483-.484-.13-.129.484.483.129zm5.446 3.424l-.483-.129.483.129zm-3.691 2.148l.13-.483-.13.483zm-2.032-1.406l.437-.244h0l-.437.244zm-.162-2.515l-.483-.129h0l.483.129zm73.537-.975l.254-.43-.254.43zm1.225 1.883l.491-.095-.491.095zm-3.643-2.174l.096.491-.096-.491zm-2.565 3.378l-.491.095h0l.491-.095zm3.635 2.197l-.096-.491.096.491zm2.158-1.176l.398.303-.398-.303zm-62.37 27.128l.447.223.152-.304-.227-.253-.372.334zm-.402-.448l.372-.334-.228-.255-.32.12.176.468zm-2.565 6.399l-.372.334.491.548.328-.659-.447-.223zm-.495-.552l-.447-.223-.152.304.227.253.372-.334zm.94-1.884l.447.223.152-.304-.227-.253-.372.334zm-1.647-1.838l.372-.334-.23-.256-.321.123.179.467zm-1.958.749l-.372.334.23.256.321-.123-.179-.467zm-.484-.54l-.176-.468-.684.257.488.544.372-.334zm34.119 11.489v.5h.5v-.5h-.5zm0-.637h.5v-.5h-.5v.5zm-2.71.637v-.5h-.5v.5h.5zm0 2.258h-.5v.5h.5v-.5zm2.546 0h.5v-.5h-.5v.5zm0 .637v.5h.5v-.5h-.5zm-2.546 0v-.5h-.5v.5h.5zm0 2.638v.5h.5V77h-.5zm-.714 0h-.5v.5h.5V77zm0-6.171v-.5h-.5v.5h.5zm26.495-12.042l.316-.388-.39-.317-.315.391.389.314zm4.27 3.475l-.316.388.39.317.315-.391-.389-.314zm-4.72-2.917l-.389-.314-.312.388.386.314.316-.388zm4.773 3.884l-.316.388.39.317.315-.391-.389-.314zm2.155-2.674l.389.314.312-.388-.386-.314-.316.388zm-.503-.409l.316-.388-.39-.317-.315.391.389.314zm-58.18-1.361l.182.466.009-.004-.191-.462zm.836-.398l.423.267-.667-.703.244.436zm-2.734 1.138l-.182-.466-.672.262.482.537.372-.334zm1.33 1.484l-.372.334.484.54.333-.644-.444-.23zm.936-1.813l.444.23.002-.003-.446-.226zm60.543-31.883l-.096-.491h0l.096.491zm-1.746.872l.384.32-.384-.32zm4.631.676l.491-.095h0l-.491.095zm-.338 1.646l-.386-.317h0l.386.317zm-1.756.887l-.096-.491.096.491zm-1.943-.165l-.239.439h0l.239-.439zm-.929-1.407l.491-.095-.491.095zm-68.553-1.943l-.483-.129h0l.483.129zm.225-.844l.13-.483-.484-.13-.129.484.483.129zm1.514 3.978l.13-.483h0l-.13.483zm1.905-.114l-.249-.434.249.434zm1.052-1.581l-.483-.129.483.129zm.269-1.007l.483.129.129-.482-.482-.13-.13.483zm44.373-22.9l.438.242h0l-.438-.242zm.746-.62l.099.49h0l-.099-.49zm-.857 1.567l.457-.204h0l-.457.204zm.878.798l.243-.437h0l-.243.437zm.812.452l-.243.437.439.244.243-.44-.438-.242zm1.139-2.064l.438.242.241-.436-.435-.242-.243.437zm-.856-.477l.243-.437h0l-.243.437zM37.327 1.969l.42-.271-.273-.422-.421.274.273.419zm3.345 5.176l.273.419.417-.272-.27-.418-.42.271zM36.728 2.36l-.273-.419-.417.272.27.418.42-.271zm3.345 5.176l-.42.271.273.422.42-.274-.273-.419zm28.908-6.099l.739.411.487-.874-.739-.411-.487.874zm.864 2.783L69.724.981l-.999.037.121 3.238.999-.037zm-1.941 1.106c.155-.28.336-.444.532-.532s.465-.125.822-.062l.172-.985c-.501-.088-.979-.056-1.405.135s-.758.528-.998.961l.876.483zm-.134.977c-.104-.254-.094-.563.134-.977l-.876-.483c-.334.605-.431 1.234-.184 1.838l.926-.378zm1.031.946c-.618-.344-.919-.67-1.031-.946l-.926.378c.238.582.77 1.052 1.471 1.442l.487-.874zm1.473.821l-1.473-.821-.487.874 1.473.821.487-.874zm2.297-5.202l-2.978 5.398.876.483 2.978-5.398-.876-.483zm-.43.33l.625.348.487-.874-.625-.348-.487.874zm-.557 2.049l1.238-2.245-.876-.483-1.238 2.245.876.483zm-1.802-.429l1.121.624.487-.874-1.121-.624-.487.874zm-.319-3.396l.062 2.969 1-.021-.062-2.969-1 .021zM24.67 27.295l-5.933-1.597-.26.966 5.933 1.597.26-.966zm-.134 2.438l.487-1.827-.966-.258-.487 1.827.966.258zm-1.576 2.258c.793-.46 1.304-1.241 1.576-2.258l-.966-.258c-.223.836-.607 1.358-1.111 1.651l.502.865zm-2.729.244c1.009.272 1.937.216 2.729-.244l-.502-.865c-.504.293-1.143.366-1.967.143l-.26.966zm-2.339-1.645c.46.825 1.272 1.358 2.339 1.645l.26-.966c-.892-.24-1.435-.645-1.726-1.167l-.873.487zm-.209-2.887c-.289 1.084-.25 2.066.209 2.887l.873-.487c-.293-.526-.362-1.221-.116-2.143l-.966-.258zm.44-1.651l-.44 1.651.966.258.44-1.651-.966-.258zm73.325 1.235c.502.296.841.787.988 1.547l.982-.19c-.191-.985-.668-1.75-1.461-2.219l-.509.861zm-2.069-.231c.883-.172 1.555-.072 2.069.231l.509-.861c-.782-.462-1.721-.556-2.769-.351l.192.982zm-1.833.991c.36-.472.947-.818 1.833-.991l-.192-.982c-1.049.205-1.886.645-2.436 1.365l.795.607zm-.337 1.801c-.147-.758-.016-1.339.337-1.801l-.795-.607c-.558.73-.714 1.616-.524 2.598l.982-.19zm.978 1.58c-.485-.291-.825-.789-.978-1.58l-.982.19c.193.999.661 1.777 1.445 2.247l.515-.857zm2.071.221c-.903.177-1.575.076-2.071-.221l-.515.857c.773.464 1.717.552 2.777.346l-.192-.982zm1.856-.988c-.352.463-.943.81-1.856.988l.192.982c1.067-.208 1.914-.645 2.461-1.364l-.796-.605zm.322-1.827c.152.787.022 1.375-.322 1.827l.796.605c.554-.729.701-1.624.508-2.622l-.982.19zM30.515 57.758l-.402-.449-.745.667.402.449.745-.667zm-2.892 6.507l2.967-5.95-.895-.446-2.967 5.95.895.446zm-1.314-.441l.495.552.745-.667-.495-.552-.745.667zm.865-2.441l-.94 1.884.895.446.94-1.884-.895-.447zm-1.572-1.281l1.647 1.838.745-.667-1.647-1.838-.745.667zm-1.407.882l1.958-.749-.357-.934-1.958.749.357.934zm-1.035-.673l.483.54.745-.667-.483-.54-.745.667zm6.405-3.135l-6.208 2.333.352.936 6.208-2.333-.352-.936zm28.587 14.291v-.637h-1v.637h1zm-3.21.5h2.71v-1h-2.71v1zm.5 1.758v-2.258h-1v2.258h1zm2.046-.5h-2.546v1h2.546v-1zm.5 1.137v-.637h-1v.637h1zm-3.046.5h2.546v-1h-2.546v1zm.5 2.138v-2.638h-1V77h1zm-1.214.5h.714v-1h-.714v1zm-.5-6.671V77h1v-6.171h-1zm3.924-.5h-3.424v1h3.424v-1zm22.755-11.155l4.27 3.475.631-.776-4.27-3.475-.631.776zm.255.484l.449-.558-.779-.627-.449.558.779.628zm4.7 3.182l-4.773-3.884-.631.776 4.773 3.884.631-.776zm1.45-2.6l-2.155 2.674.779.627 2.155-2.674-.779-.628zm-.429.293l.503.409.631-.776-.503-.409-.631.776zm-1 2.042l1.705-2.116-.779-.627-1.705 2.116.779.627zm-56.673-3.329c.33-.137.627-.278.889-.424l-.488-.873a7.46 7.46 0 0 1-.783.373l.382.924zm-1.907.744l1.898-.74-.363-.932-1.898.74.363.932zm1.52.684l-1.33-1.484-.745.667 1.33 1.484.745-.667zm.12-1.709l-.936 1.813.889.459.936-1.813-.889-.459zm.489-.846l-.491.85.892.452a9.77 9.77 0 0 1 .445-.769l-.846-.533zm60.402-31.298c-.87.17-1.579.497-2.034 1.042l.768.641c.251-.3.706-.555 1.459-.702l-.192-.981zm2.291.2c-.629-.336-1.414-.372-2.291-.2l.192.981c.762-.149 1.283-.084 1.628.101l.472-.882zm1.18 1.743c-.151-.78-.529-1.395-1.18-1.743l-.472.882c.323.173.561.49.67 1.052l.982-.19zm-.443 2.059c.469-.571.593-1.281.443-2.059l-.982.19c.107.554.006.942-.234 1.234l.773.634zm-2.047 1.061c.877-.171 1.59-.504 2.047-1.061l-.773-.634c-.252.307-.71.566-1.466.713l.192.981zm-2.278-.216c.631.344 1.41.386 2.278.216l-.192-.981c-.743.145-1.259.077-1.608-.113l-.479.878zm-1.181-1.751c.151.781.531 1.397 1.181 1.752l.479-.878c-.329-.18-.569-.502-.678-1.064l-.982.19zm.443-2.053c-.472.565-.594 1.275-.443 2.053l.982-.19c-.108-.559-.006-.941.229-1.222l-.768-.641zm-68.022.144l.225-.844-.966-.258-.225.844.966.258zm.063 1.654c-.207-.371-.264-.9-.063-1.654l-.966-.258c-.24.899-.223 1.721.156 2.4l.873-.488zm1.323.869c-.711-.191-1.116-.499-1.323-.869l-.873.488c.381.68 1.062 1.111 1.936 1.346l.26-.966zm1.526-.065c-.342.196-.828.253-1.526.065l-.26.966c.85.229 1.633.21 2.284-.163l-.497-.868zm.818-1.276c-.184.692-.476 1.08-.818 1.276l.497.868c.651-.373 1.061-1.039 1.287-1.886l-.966-.258zm.269-1.007l-.269 1.007.966.258.269-1.007-.966-.258zm-4.387-.664l4.74 1.276.26-.966-4.74-1.276-.26.966zM68.57 5.652c.146-.265.289-.348.407-.372l-.199-.98c-.487.099-.842.429-1.084.869l.876.483zm-.093.501c-.037-.084-.057-.229.093-.501l-.876-.483c-.244.441-.338.927-.13 1.392l.913-.408zm.665.565c-.433-.241-.609-.44-.665-.565l-.913.408c.189.423.598.756 1.092 1.031l.487-.874zm.812.452l-.812-.452-.487.874.812.452.487-.874zm.457-1.869l-1.138 2.064.876.483 1.138-2.064-.876-.483zm-.662.201l.856.477.487-.874-.856-.477-.487.874zm-.773-.223c.132-.027.375.001.773.223l.487-.874c-.484-.269-.984-.426-1.458-.33l.199.98zm-32.069-3.04l3.345 5.176.84-.543-3.345-5.176-.84.543zm.094.538l.599-.391-.546-.837-.599.391.547.837zm3.492 4.486l-3.345-5.176-.84.543 3.345 5.176.84-.543zm-.094-.538l-.599.391.546.837.599-.391-.547-.837z" fill="#e5e3df"/></svg>