<svg width="512" height="512" viewBox="0 0 512 512" fill="none" xmlns="http://www.w3.org/2000/svg">
<path fill-rule="evenodd" clip-rule="evenodd" d="M0 0H512V512H0V0Z" fill="#E5E3DF"/>
<mask id="mask0_2_2" style="mask-type:alpha" maskUnits="userSpaceOnUse" x="0" y="0" width="512" height="512">
<path fill-rule="evenodd" clip-rule="evenodd" d="M0 0H512V512H0V0Z" fill="white"/>
</mask>
<g mask="url(#mask0_2_2)">
<path fill-rule="evenodd" clip-rule="evenodd" d="M102.827 323.776C91.6904 336.822 84.3081 345.47 81.0807 347.967C74.5811 352.996 84.5435 368.287 95.1074 357.608C107.651 344.928 109.894 339.367 112.285 333.438C114.218 328.647 116.247 323.615 123.888 314.393C164.264 265.66 232.721 190.27 310.868 134.08C357.491 100.556 348.463 118.678 325.222 145.617C286.747 190.215 249.729 227.946 219.748 258.503C193.028 285.738 171.898 307.274 160.31 322.895C134.56 357.608 159.517 362.418 174.076 355.98C181.05 352.897 185.341 349.587 192.09 344.381C199.433 338.717 209.686 330.809 229.468 318.506C233.605 315.933 236.815 313.579 239.297 311.759C246.008 306.838 247.397 305.819 247.397 314.929C247.397 321.303 257.17 325.517 264.931 325.517C266.843 325.517 268.433 325.29 269.832 325.089C274.114 324.476 276.61 324.118 281.069 331.325C285.039 337.742 286.738 337.759 294.488 337.832C297.123 337.857 300.458 337.889 304.82 338.181C318.483 339.097 325.447 341.379 333.505 344.02C344.395 347.589 357.283 351.812 391.396 354.204C491.971 361.256 574.764 414.297 602.686 432.655C624.932 447.28 621.867 434.396 611.729 426.336C528.803 360.397 444.065 347.98 407.939 344.641C361.28 340.329 346.954 335.477 331.858 330.363C328.005 329.058 324.102 327.735 319.598 326.401C298.379 320.113 297.581 316.7 296.726 313.043C296.377 311.552 296.019 310.02 294.261 308.236C286.816 300.678 271.296 305.674 271.296 305.674C271.296 305.674 274.154 298.28 279.929 295.172C282.724 293.667 283.835 292.056 285.124 290.188C287.188 287.196 289.707 283.545 300.327 278.616C315.78 271.444 297.092 254.383 286.389 265.153C279.42 272.166 250.885 290.792 224.298 308.147C210.055 317.445 196.37 326.378 186.859 332.964C159.596 351.846 160.217 340.487 180.978 316.818C206.54 287.675 237.1 256.468 265.561 227.404C301.106 191.107 333.377 158.152 348.555 136.732C375.887 98.1608 366.778 79.4902 308.802 123.244C210.993 197.06 138.09 282.465 102.827 323.776ZM-51.3332 302.927C-53.1151 300.747 -55.2527 298.132 -58.969 297.419C-76.4735 294.063 -105.079 324.894 -107.342 339.791C-109.481 353.869 -81.3985 374.94 -50.2284 329.464C-36.8371 309.926 -39.0913 314.708 -42.1365 321.168C-42.718 322.401 -43.3283 323.695 -43.864 324.894C-48.8595 336.066 -44.4551 342.312 -42.3042 345.362L-42.3037 345.363L-42.2994 345.369C-42.088 345.669 -41.8984 345.938 -41.7419 346.178C-37.8502 352.137 -32.1433 353.985 -24.1971 345.048C-16.2509 336.112 -1.04636 322.659 13.6963 311.291C28.439 299.924 32.3934 302.422 32.3934 306.881C32.3934 311.341 34.1452 316.118 42.3587 322.659C46.1569 325.683 47.3242 329.228 48.5151 332.846C49.8996 337.051 51.3162 341.353 56.935 345.048C64.9077 350.292 80.0362 338.445 72.9942 333.133C70.2124 331.035 67.2564 328.613 66.1547 322.659C65.0529 316.705 64.4354 315.133 60.5529 311.291L60.5027 311.241C56.6651 307.444 56.0553 306.84 53.8728 297.419C51.6809 287.957 48.2257 284.482 30.919 289.037C18.1547 292.397 -7.63855 307.754 -22.7562 324.894C-33.5232 337.101 -41.7419 328.254 49.3374 222.083C65.4808 203.264 80.4635 183.194 92.3911 167.217L92.3919 167.216C102.893 153.15 111.026 142.256 115.498 138.179C127.744 127.018 112.902 115.919 101.708 129.587C92.747 140.529 -37.0911 297.255 -43.0371 303.611C-47.166 308.025 -48.9248 305.874 -51.3332 302.927ZM-57.9248 322.624C-50.8327 313.576 -62.6525 311.83 -70.8137 316.118C-101.265 332.119 -78.305 348.624 -57.9248 322.624ZM-209.121 326.363C-188.512 291.193 -128.752 198.886 -15.2022 151.471C5.68576 142.749 29.9484 153.683 13.5832 181.987C-9.90903 222.618 -74.4457 283.146 -143.464 347.878L-143.464 347.878L-143.464 347.879C-211.73 411.904 -284.379 480.041 -326.033 537.103C-345.451 563.705 -345.496 570.024 -342.501 576.256C-342.234 576.812 -341.976 577.333 -341.732 577.823C-339.24 582.838 -338.338 584.654 -346.82 587.064C-356.132 589.71 -360.296 585.466 -360.296 577.666C-360.296 569.866 -358.706 559.118 -335.114 530.033C-277.929 459.533 -217.246 402.844 -159.177 348.597L-159.177 348.597C-103.523 296.605 -50.2698 246.857 -4.80103 189.345C6.26456 175.348 18.3323 143.296 -33.2704 170.28C-34.0885 170.708 -35.0083 171.182 -36.0249 171.706C-59.6831 183.903 -135.76 223.124 -203.006 333.911C-207.1 340.656 -212.615 332.325 -209.121 326.363Z" fill="black"/>
</g>
</svg>
